<svg xmlns="http://www.w3.org/2000/svg" xmlns:xlink="http://www.w3.org/1999/xlink" version="1.1" x="0px" y="0px" viewBox="0 0 100 125" enable-background="new 0 0 100 100" xml:space="preserve"><g><path fill="#000000" d="M21.85,70.66c3.27,0,6.24,1.35,8.39,3.529c0.21,0.211,0.41,0.431,0.6,0.65h31.051V23.49H8.01v20.06h-3   V20.49c19.96,0,39.92,0,59.881,0V40.2h14.549c2.19,0,3.281,1.22,4.041,2.46l7.47,12.14c1.8,1.29,4.329,2.88,5.81,4.46   c0.971,1.04,1.66,2.26,1.66,3.75v12.32c0.189,0.12,0.37,0.27,0.53,0.43l0.01,0.01c0.569,0.57,0.92,1.36,0.92,2.221v3.91   c0,1.729-1.42,3.14-3.14,3.14H83.33c-0.45,2.41-1.609,4.569-3.26,6.239c-2.15,2.181-5.12,3.531-8.391,3.531   c-3.27,0-6.24-1.351-8.39-3.531c-1.649-1.67-2.81-3.829-3.261-6.239H33.49c-0.47,2.36-1.62,4.47-3.24,6.11   c-2.15,2.18-5.12,3.529-8.39,3.529s-6.24-1.35-8.39-3.529c-1.62-1.641-2.77-3.75-3.23-6.11h-2.2c-1.39,0-2.62-0.931-3.02-2.261   V61.59c0.33,0.1,0.68,0.16,1.04,0.16h1.96v13.1h4.86c0.19-0.229,0.39-0.439,0.6-0.66c2.15-2.18,5.12-3.529,8.39-3.529H21.85z    M1.7,48.56c-0.83,0-1.5-0.67-1.5-1.5s0.67-1.5,1.5-1.5h20.38c0.83,0,1.5,0.67,1.5,1.5s-0.67,1.5-1.5,1.5H1.7z M9.11,56.75   c0.83,0,1.5,0.67,1.5,1.5s-0.67,1.5-1.5,1.5H6.05c-0.83,0-1.5-0.67-1.5-1.5s0.67-1.5,1.5-1.5H9.11z M3.33,54.189   c-0.83,0-1.5-0.67-1.5-1.5s0.67-1.5,1.5-1.5h15.38c0.83,0,1.5,0.67,1.5,1.5s-0.67,1.5-1.5,1.5H3.33z M33.96,45.57   c0.83,0,1.5,0.67,1.5,1.5c0,0.83-0.67,1.5-1.5,1.5h-7.87c-0.83,0-1.5-0.67-1.5-1.5c0-0.83,0.67-1.5,1.5-1.5H33.96z M71.68,78.52   c2.36,0,4.26,1.951,4.26,4.301s-1.899,4.3-4.26,4.3c-2.359,0-4.26-1.95-4.26-4.3S69.32,78.52,71.68,78.52z M71.68,81.52   c-0.72,0-1.26,0.59-1.26,1.301c0,0.709,0.54,1.3,1.26,1.3c0.721,0,1.26-0.591,1.26-1.3C72.939,82.109,72.4,81.52,71.68,81.52z    M71.68,70.811c3.271,0,6.24,1.35,8.391,3.529c0.17,0.17,0.33,0.34,0.479,0.52h14.87V68.42h-3.57c-0.41,0-0.789-0.17-1.06-0.439   c-0.59-0.59-0.59-1.53,0-2.121c0.271-0.27,0.649-0.439,1.06-0.439h3.57v-2.38c0-0.601-0.359-1.17-0.85-1.71   c-0.9-0.971-2.24-1.83-3.34-2.62H71.3c-2.079-0.351-3.771-1.92-3.979-4.069V43.22h-2.43v29.75c1.92-1.361,4.26-2.16,6.779-2.16   H71.68z M82.48,77.859c0.58,1.291,0.939,2.711,1.029,4.201h13.23c0.07,0,0.14-0.07,0.14-0.141v-3.91c0-0.08-0.06-0.14-0.14-0.14   H82.48V77.859z M59.85,82.061c0.09-1.49,0.45-2.9,1.03-4.201H32.72c0.56,1.301,0.91,2.711,0.98,4.201h26.14H59.85z M77.939,76.439   c-1.6-1.619-3.81-2.629-6.26-2.629c-2.449,0-4.66,1-6.26,2.629c-1.609,1.631-2.6,3.891-2.6,6.381c0,2.5,0.99,4.75,2.6,6.38   c1.6,1.62,3.811,2.63,6.26,2.63c2.45,0,4.66-1,6.26-2.63c1.61-1.63,2.601-3.89,2.601-6.38C80.54,80.32,79.55,78.07,77.939,76.439z    M70.33,43.23v11.299c0.15,0.641,0.63,0.961,1.21,1.191h16.44L80.93,44.26c-0.22-0.36-0.56-1.03-1.49-1.03H70.32H70.33z    M21.86,78.391c1.18,0,2.24,0.489,3.02,1.27c0.77,0.779,1.24,1.85,1.24,3.029c0,1.181-0.47,2.25-1.24,3.031   c-0.77,0.779-1.84,1.27-3.02,1.27c-1.18,0-2.24-0.49-3.02-1.27c-0.77-0.781-1.24-1.851-1.24-3.031c0-1.18,0.47-2.25,1.24-3.029   C19.61,78.88,20.68,78.391,21.86,78.391z M21.86,81.391c-0.72,0-1.26,0.59-1.26,1.299c0,0.711,0.54,1.301,1.26,1.301   c0.72,0,1.26-0.59,1.26-1.301C23.12,81.98,22.58,81.391,21.86,81.391z M10.02,82.061c0.08-1.49,0.42-2.9,0.98-4.201H8.03   c-0.08,0-0.14,0.061-0.14,0.141v3.91c0,0.07,0.07,0.14,0.14,0.14h1.99V82.061z M28.12,76.3c-1.6-1.62-3.81-2.63-6.26-2.63   c-2.45,0-4.66,0.5-6.26,2.13c-1.61,1.63-2.6,4.39-2.6,6.88c0,2.5,0.99,4.75,2.6,6.381c1.6,1.619,3.81,2.629,6.26,2.629   c2.45,0,4.66-1,6.26-2.629c1.61-1.631,2.6-3.891,2.6-6.381C30.72,80.18,29.73,77.93,28.12,76.3z"/></g><text x="0" y="115" fill="#000000" font-size="5px" font-weight="bold" font-family="'Helvetica Neue', Helvetica, Arial-Unicode, Arial, Sans-serif">Created by Katya Prokofyeva</text><text x="0" y="120" fill="#000000" font-size="5px" font-weight="bold" font-family="'Helvetica Neue', Helvetica, Arial-Unicode, Arial, Sans-serif">from the Noun Project</text></svg>