<svg xmlns="http://www.w3.org/2000/svg" xmlns:xlink="http://www.w3.org/1999/xlink" version="1.1" x="0px" y="0px" viewBox="0 0 64 80" enable-background="new 0 0 64 64" xml:space="preserve"><g><g><rect x="55.377" y="35.373" width="2" height="13.266"/></g><g><rect x="39.787" y="43.311" width="2" height="5.328"/></g><g><path d="M43.734,44.537H41.1c-4.131,0-7.492-3.361-7.492-7.492v-1.359h2v1.359c0,3.028,2.464,5.492,5.492,5.492h2.635V44.537z"/></g><g><rect x="39.795" y="19.945" width="7.256" height="2"/></g><g><rect x="4.021" y="19.945" width="33.307" height="2"/></g><g><path d="M51.359,44.594h-1.473c-4.146,0-7.52-3.361-7.52-7.492v-1.767L35.403,28.4c-1.921-1.924-1.921-5.051-0.002-6.973    l2.407-2.434c0.187-0.189,0.441-0.296,0.707-0.297c0.002,0,0.003,0,0.004,0c0.265,0,0.519,0.104,0.706,0.292l10.459,10.432    l-1.412,1.416l-9.748-9.723l-1.704,1.724c-1.145,1.146-1.145,3.005-0.003,4.146l7.256,7.227c0.188,0.188,0.294,0.443,0.294,0.709    v2.182c0,3.028,2.476,5.492,5.52,5.492h1.473V44.594z"/></g><g><rect x="28.088" y="30.234" width="6.52" height="2"/></g><g><rect x="40.334" y="51.409" width="4.592" height="2"/></g><g><path d="M57.377,35.629h-2V16.796L44.116,5.561h-9.565c-1.48,0-2.686,1.205-2.686,2.686c0,0.244,0.051,0.528,0.155,0.869    l-1.912,0.586c-0.164-0.533-0.243-1.009-0.243-1.455c0-2.584,2.102-4.686,4.686-4.686h9.979c0.265,0,0.519,0.105,0.706,0.292    l11.848,11.82c0.188,0.188,0.294,0.442,0.294,0.708V35.629z"/></g><g><path d="M43.367,36.855H6.771c-2.067,0-3.75-1.695-3.75-3.778V12.186c0-2.118,1.647-3.777,3.75-3.777h37.502    c2.118,0,3.777,1.659,3.777,3.777v16.016h-2V12.186c0-1.014-0.764-1.777-1.777-1.777H6.771c-0.981,0-1.75,0.78-1.75,1.777v20.892    c0,0.98,0.785,1.778,1.75,1.778h36.596V36.855z"/></g><g><rect x="4.021" y="14.162" width="43.029" height="2"/></g><g><path d="M57.938,60.439H39.229c-1.677,0-3.041-1.364-3.041-3.041V50.68c0-1.677,1.364-3.041,3.041-3.041h18.709    c1.677,0,3.041,1.364,3.041,3.041v6.719C60.979,59.075,59.614,60.439,57.938,60.439z M39.229,49.639    c-0.584,0-1.041,0.457-1.041,1.041v6.719c0,0.584,0.457,1.041,1.041,1.041h18.709c0.564,0,1.041-0.477,1.041-1.041V50.68    c0-0.564-0.477-1.041-1.041-1.041H39.229z"/></g></g><text x="0" y="79" fill="#000000" font-size="5px" font-weight="bold" font-family="'Helvetica Neue', Helvetica, Arial-Unicode, Arial, Sans-serif">Created by Ongycon</text><text x="0" y="84" fill="#000000" font-size="5px" font-weight="bold" font-family="'Helvetica Neue', Helvetica, Arial-Unicode, Arial, Sans-serif">from the Noun Project</text></svg>