<svg xmlns="http://www.w3.org/2000/svg" xmlns:xlink="http://www.w3.org/1999/xlink" version="1.1" x="0px" y="0px" viewBox="0 0 96 120" enable-background="new 0 0 96 96" xml:space="preserve"><path d="M80.544,52.492V39l-2.847,1.099l-5.065-4.988l-4.2,2.772c-2.176-2.871-5.622-5.213-9.823-6.695  c3.108-2.866,5.07-6.958,5.07-11.51c0-8.645-7.032-15.677-15.676-15.677s-15.676,7.032-15.676,15.677  c0,4.546,1.957,8.633,5.058,11.499c-4.209,1.482-7.65,3.82-9.828,6.695l-4.184-2.762l-5.065,4.988L15.461,39v13.492  c-2.891,0.782-5.051,3.765-5.051,7.322s2.16,6.54,5.051,7.322v12.417l32.542,12.555l32.542-12.555V67.137  c2.891-0.782,5.052-3.765,5.052-7.322S83.435,53.274,80.544,52.492z M74.57,41.229l0.055,0.055l-0.649,0.25L74.57,41.229z   M72.257,38.952l0.062,0.061l-0.686,0.352L72.257,38.952z M35.326,19.678c0-6.99,5.687-12.677,12.676-12.677  s12.676,5.687,12.676,12.677c0,6.989-5.687,12.676-12.676,12.676S35.326,26.667,35.326,19.678z M23.748,38.952l0.624,0.412  l-0.686-0.352L23.748,38.952z M21.435,41.229l0.594,0.305l-0.649-0.25L21.435,41.229z M13.41,59.814  c0-2.497,1.593-4.529,3.551-4.529c1.958,0,3.552,2.032,3.552,4.529s-1.593,4.529-3.552,4.529  C15.003,64.344,13.41,62.312,13.41,59.814z M46.502,88.314L18.461,77.495V67.145c0.034-0.009,0.064-0.027,0.098-0.036  c0.652-0.189,1.265-0.49,1.824-0.886c0.045-0.031,0.092-0.062,0.136-0.095c0.263-0.196,0.511-0.414,0.746-0.65  c0.045-0.046,0.089-0.092,0.133-0.139c0.232-0.247,0.453-0.509,0.652-0.792c0.022-0.031,0.042-0.065,0.064-0.099  c0.191-0.279,0.364-0.573,0.52-0.883c0.018-0.036,0.039-0.07,0.057-0.107c0.155-0.319,0.285-0.655,0.398-1.001  c0.022-0.066,0.043-0.132,0.063-0.199c0.104-0.346,0.188-0.702,0.247-1.068c0.01-0.063,0.017-0.126,0.025-0.188  c0.054-0.388,0.089-0.782,0.089-1.187s-0.036-0.799-0.089-1.187c-0.009-0.063-0.015-0.126-0.025-0.188  c-0.059-0.366-0.143-0.723-0.247-1.068c-0.02-0.067-0.042-0.133-0.063-0.199c-0.113-0.346-0.243-0.682-0.398-1.001  c-0.018-0.037-0.039-0.071-0.057-0.107c-0.155-0.31-0.329-0.604-0.52-0.883c-0.022-0.033-0.042-0.067-0.064-0.099  c-0.2-0.283-0.42-0.545-0.652-0.792c-0.044-0.047-0.087-0.093-0.133-0.139c-0.235-0.236-0.483-0.454-0.746-0.65  c-0.044-0.033-0.091-0.063-0.136-0.095c-0.559-0.396-1.171-0.696-1.824-0.886c-0.034-0.009-0.064-0.027-0.098-0.036v-9.111  l28.042,10.818V88.314z M30.066,39.528c2.162-2.771,5.841-4.951,10.357-6.139c2.249,1.248,4.831,1.964,7.579,1.964  c2.749,0,5.332-0.716,7.58-1.964c4.497,1.183,8.179,3.377,10.345,6.146L48.002,51.366L30.066,39.528z M77.544,77.495L49.502,88.314  V54.191l28.042-10.818v9.119c-2.891,0.782-5.052,3.765-5.052,7.322s2.161,6.54,5.052,7.322V77.495z M79.044,64.344  c-1.958,0-3.552-2.032-3.552-4.529s1.593-4.529,3.552-4.529s3.552,2.032,3.552,4.529S81.002,64.344,79.044,64.344z"/><path d="M52.007,85.633l13.167-5.505V73.15l-13.167,5.505V85.633z M55.007,80.653l7.167-2.997v0.474l-7.167,2.997V80.653z"/><text x="0" y="111" fill="#000000" font-size="5px" font-weight="bold" font-family="'Helvetica Neue', Helvetica, Arial-Unicode, Arial, Sans-serif">Created by faisalovers</text><text x="0" y="116" fill="#000000" font-size="5px" font-weight="bold" font-family="'Helvetica Neue', Helvetica, Arial-Unicode, Arial, Sans-serif">from the Noun Project</text></svg>